<svg width="228" height="179" viewBox="0 0 228 179" fill="none" xmlns="http://www.w3.org/2000/svg">
<g clip-path="url(#clip0_3_118)">
<path d="M187.196 26.4435C186.836 28.4071 186.482 30.3819 186.297 32.4299C191.198 29.436 195.945 26.1968 200.52 22.7245C196.752 22.7335 193.005 22.1643 189.41 21.0367C188.708 22.7977 187.561 24.4124 187.196 26.4435Z" fill="#A5B9CF"/>
<path d="M185.83 20.1533C185.83 23.9117 185.954 28.5196 186.049 32.3455C187.775 29.4536 189.365 25.7177 191.107 22.7808C199.627 20.4268 207.74 16.7921 215.17 12.0009C205.763 13.5818 194.878 17.0589 185.83 20.1533Z" fill="#C3D2DE"/>
<path d="M190.972 22.8258C199.053 19.09 207.219 15.4104 215.44 11.9221C212.035 16.8788 208.382 21.633 204.858 26.4435C200.119 25.7112 195.467 24.4991 190.972 22.8258Z" fill="white"/>
<path d="M215.406 11.9164C205.733 15.7257 195.871 19.0345 185.858 21.8299C181.844 21.0666 177.934 19.8316 174.209 18.1504C187.786 15.5229 201.492 13.5031 215.406 11.9164Z" fill="white"/>
<path d="M183.504 34.5454C176.03 40.7005 167.814 46.1355 158.654 49.2581C149.494 52.3807 139.266 53.0052 130.179 49.68C119.968 45.9386 112.196 37.7242 103.368 31.3384C94.4155 24.8457 84.0024 20.0858 73.0216 18.9606C62.0408 17.8353 50.4306 20.5978 41.9056 27.6363C28.5197 38.6807 24.8669 58.5808 29.6436 75.2965C32.2731 84.2216 36.9149 92.4229 43.211 99.2678C49.5072 106.113 57.2894 111.419 65.9577 114.776" stroke="white" stroke-linecap="round" stroke-linejoin="round" stroke-dasharray="8 24 8 24 8 24"/>
<path d="M74.3422 53.3877C74.5614 50.4396 74.6007 47.3001 73.1059 44.7514C71.6111 42.2027 68.7507 40.6499 65.8397 40.0591C62.9288 39.4683 59.9222 39.7046 56.9607 39.9409C58.36 46.3436 63.4064 51.8124 74.3422 53.3877Z" fill="#1CA33A"/>
<path d="M79.31 59.5316C77.4076 57.014 76.2423 54.0161 75.9446 50.8732C75.6468 47.7304 76.2284 44.5666 77.6241 41.7357C78.5626 39.9072 80.1136 38.1068 82.1592 38.0168C86.121 44.8358 85.4186 54.0404 79.31 59.5316Z" fill="#1CA33A"/>
<path d="M82.0467 63.2056C79.2446 60.5659 75.5807 59.0345 71.7357 58.8958C67.8907 58.7572 64.1262 60.0207 61.1417 62.4517C65.8903 66.497 72.8923 67.7516 82.0467 63.2056Z" fill="#1CA33A"/>
<path d="M87.3348 71.4537C86.3149 69.6865 85.6593 67.7325 85.4068 65.7072C85.1544 63.6819 85.3102 61.6264 85.8651 59.6625C86.4199 57.6985 87.3625 55.8659 88.6372 54.2731C89.9118 52.6802 91.4926 51.3595 93.286 50.3889C96.3375 57.208 94.8314 65.8275 87.3348 71.4537Z" fill="#1CA33A"/>
<path d="M89.9592 77.4513C89.0183 75.5878 87.6525 73.9721 85.9723 72.735C84.2921 71.4978 82.3447 70.674 80.2876 70.33C78.2304 69.986 76.1213 70.1315 74.1307 70.7549C72.1402 71.3782 70.3241 72.4618 68.8293 73.918C73.7072 77.5132 80.1136 78.9648 89.9592 77.4513Z" fill="#1CA33A"/>
<path d="M93.1511 84.3942C92.9095 80.6414 93.3253 76.7593 95.0393 73.4173C96.7533 70.0753 99.9115 67.3409 103.626 66.7783C104.564 70.5089 104.167 74.4509 102.502 77.9183C100.872 81.3672 97.9784 84.1804 93.1511 84.3942Z" fill="#1CA33A"/>
<path d="M96.1464 91.5114C95.1654 89.7429 93.7752 88.2358 92.0924 87.1162C90.4096 85.9966 88.4832 85.2973 86.4747 85.0769C84.4663 84.8564 82.4343 85.1213 80.5492 85.8493C78.6641 86.5773 76.9807 87.7472 75.6404 89.2609C80.6362 93.1374 87.4472 94.5777 96.1464 91.5114Z" fill="#1CA33A"/>
<path d="M70.6895 49.3987C89.4389 69.9217 100.745 96.1642 102.789 123.902" stroke="#126943" stroke-miterlimit="10" stroke-linecap="round"/>
<path d="M39.787 97.1545C38.4275 95.1914 36.674 93.5337 34.6385 92.2872C32.603 91.0407 30.3303 90.2328 27.9655 89.9152C25.6006 89.5975 23.1956 89.777 20.9039 90.4423C18.6123 91.1075 16.4843 92.2439 14.656 93.7788C19.9497 99.1181 28.396 101.059 39.787 97.1545Z" fill="#1CA33A"/>
<path d="M47.5759 100.879C44.2227 98.4684 41.8774 94.9022 40.9906 90.8656C40.1037 86.8291 40.7378 82.6068 42.7711 79.0098C45.5809 81.8229 48.2446 84.923 49.717 88.6251C51.1893 92.3272 51.2849 96.772 47.5759 100.879Z" fill="#1CA33A"/>
<path d="M43.94 99.0225C40.0793 98.4705 36.1514 99.3737 32.918 101.557C29.6847 103.74 27.3762 107.047 26.4404 110.838C30.141 111.122 33.8457 110.341 37.1177 108.587C40.3041 106.804 42.8835 103.754 43.94 99.0225Z" fill="#1CA33A"/>
<path d="M58.787 107.152C57.2897 105.611 56.1156 103.785 55.3339 101.782C54.5522 99.7793 54.1786 97.6401 54.2351 95.4905C54.2917 93.341 54.7772 91.2245 55.6632 89.2657C56.5492 87.3068 57.8177 85.5453 59.394 84.0847C64.21 90.7125 65.1878 99.9508 58.787 107.152Z" fill="#1CA33A"/>
<path d="M56.0559 105.403C53.9991 103.794 51.0825 103.535 48.6043 104.362C46.1367 105.281 44.0063 106.929 42.4957 109.088C40.9923 111.235 39.7438 113.55 38.7755 115.986C42.3725 116.099 45.924 115.157 48.9939 113.277C52.0638 111.397 54.5183 108.66 56.0559 105.403Z" fill="#1CA33A"/>
<path d="M67.2109 112.846C66.1236 111.11 65.3923 109.175 65.0595 107.153C64.7268 105.131 64.7991 103.064 65.2725 101.07C65.7458 99.0766 66.6106 97.1973 67.8166 95.5418C69.0225 93.8862 70.5454 92.4875 72.2966 91.427C74.2247 94.9954 74.9201 99.1019 74.2747 103.107C73.6172 107.079 71.611 110.838 67.2109 112.846Z" fill="#1CA33A"/>
<path d="M74.4939 120.014C71.7796 117.426 67.6548 116.689 63.9908 117.499C60.3268 118.309 57.0955 120.475 54.3588 123.041C60.3156 126.676 68.5989 125.95 74.4939 120.014Z" fill="#1CA33A"/>
<path d="M80.5519 126.884C68.2364 110.822 50.6817 99.5959 30.9473 95.1628" stroke="#126943" stroke-miterlimit="10" stroke-linecap="round"/>
<path d="M93.2017 105.898C93.2729 100.13 92.1563 94.4085 89.9215 89.0914C87.6868 83.7743 84.3818 78.9752 80.2127 74.9933C76.0436 71.0114 71.0998 67.9322 65.6897 65.9477C60.2795 63.9632 54.5189 63.116 48.7672 63.4588C48.4355 69.299 49.389 75.1408 51.5603 80.5715C53.7316 86.0022 57.0676 90.8892 61.3327 94.8872C69.8915 102.803 82.0917 106.59 93.2017 105.898Z" fill="#1F918C"/>
<path d="M54.4374 68.0779C69.7939 79.1146 82.4282 93.5189 91.3753 110.191" stroke="#166673" stroke-miterlimit="10" stroke-linecap="round"/>
<path d="M66.8737 68.5168C66.765 71.6562 66.6564 74.7976 66.5477 77.9408" stroke="#166673" stroke-miterlimit="10" stroke-linecap="round"/>
<path d="M80.9228 77.7383C80.6035 81.9736 79.682 86.1416 78.186 90.1161" stroke="#166673" stroke-miterlimit="10" stroke-linecap="round"/>
<path d="M89.9142 93.5875C89.3665 96.4104 88.0476 99.026 86.1041 101.144" stroke="#166673" stroke-miterlimit="10" stroke-linecap="round"/>
<path d="M52.8976 74.0249C56.0353 75.0905 59.3808 75.3951 62.659 74.9139" stroke="#166673" stroke-miterlimit="10" stroke-linecap="round"/>
<path d="M59.2759 88.7714C64.0559 88.443 68.731 87.2136 73.0553 85.1481" stroke="#166673" stroke-miterlimit="10" stroke-linecap="round"/>
<path d="M69.7285 99.9789C74.3505 100.097 78.9145 98.9286 82.9122 96.6032" stroke="#166673" stroke-miterlimit="10" stroke-linecap="round"/>
<path d="M144.745 91.6521C141.167 87.1348 138.557 81.9285 137.076 76.3573C135.595 70.7861 135.275 64.9694 136.137 59.2692C136.999 53.569 139.024 48.1076 142.086 43.2249C145.147 38.3422 149.18 34.1428 153.933 30.8883C157.766 35.3022 160.584 40.505 162.189 46.1291C163.793 51.7533 164.144 57.6614 163.217 63.4363C161.284 74.9139 153.978 85.39 144.745 91.6521Z" fill="#1F918C"/>
<path d="M152.292 37.9886C146.898 56.1269 145.716 75.2595 148.836 93.9251" stroke="#166673" stroke-miterlimit="10" stroke-linecap="round"/>
<path d="M142.683 45.9723L148.701 53.2246" stroke="#166673" stroke-miterlimit="10" stroke-linecap="round"/>
<path d="M137.215 61.889C140.059 65.0513 143.342 67.7874 146.965 70.0134" stroke="#166673" stroke-miterlimit="10" stroke-linecap="round"/>
<path d="M139.8 79.8931C141.957 81.7903 144.6 83.0487 147.431 83.5277" stroke="#166673" stroke-miterlimit="10" stroke-linecap="round"/>
<path d="M157.12 41.747C155.289 44.5137 152.83 46.8063 149.943 48.4366" stroke="#166673" stroke-miterlimit="10" stroke-linecap="round"/>
<path d="M161.093 57.3149C157.116 59.9821 152.671 61.872 147.993 62.8849" stroke="#166673" stroke-miterlimit="10" stroke-linecap="round"/>
<path d="M159.682 72.579C156.101 75.507 151.778 77.3826 147.195 77.9971" stroke="#166673" stroke-miterlimit="10" stroke-linecap="round"/>
<path d="M184.954 58.5864C185.173 56.5297 185.834 54.5448 186.89 52.7671C187.946 50.9894 189.373 49.4608 191.073 48.2857C192.774 47.1107 194.707 46.3168 196.742 45.9583C198.777 45.5999 200.865 45.6852 202.863 46.2086C199.902 53.0783 192.815 57.9507 184.954 58.5864Z" fill="#1CA33A"/>
<path d="M182.144 62.2435C183.731 59.438 184.482 56.2362 184.309 53.0167C184.136 49.7971 183.045 46.6947 181.166 44.0762C178.686 46.4353 177.205 49.6578 177.03 53.0783C176.878 56.4991 178.092 59.9311 182.144 62.2435Z" fill="#1CA33A"/>
<path d="M178.435 67.9879C179.506 66.3951 180.907 65.0514 182.542 64.0476C184.177 63.0438 186.009 62.4033 187.913 62.1697C189.817 61.936 191.748 62.1146 193.577 62.6932C195.406 63.2718 197.09 64.2371 198.514 65.5236C195.781 67.8687 192.418 69.3537 188.846 69.7921C185.274 70.2305 181.652 69.6029 178.435 67.9879Z" fill="#1CA33A"/>
<path d="M174.686 73.1022C175.665 71.3896 176.283 69.4941 176.5 67.533C176.718 65.5718 176.531 63.5869 175.952 61.7009C175.372 59.8149 174.412 58.0681 173.131 56.5685C171.851 55.0689 170.276 53.8484 168.505 52.9827C166.223 59.6836 168.027 67.6279 174.686 73.1022Z" fill="#1CA33A"/>
<path d="M172.388 77.8227C173.691 76.2853 175.294 75.03 177.098 74.1335C178.902 73.2371 180.87 72.7182 182.881 72.6087C184.892 72.4992 186.905 72.8013 188.795 73.4965C190.686 74.1918 192.415 75.2656 193.878 76.6524C190.797 78.9168 187.123 80.2333 183.307 80.4412C179.49 80.649 175.696 79.7391 172.388 77.8227Z" fill="#1CA33A"/>
<path d="M169.522 82.8132C170.092 80.9138 170.252 78.9145 169.989 76.9486C169.727 74.9827 169.048 73.0955 168 71.4129C166.951 69.7303 165.556 68.291 163.907 67.1911C162.259 66.0911 160.395 65.3558 158.44 65.0341C157.698 72.0163 161.463 79.2405 169.522 82.8132Z" fill="#1CA33A"/>
<path d="M167.162 89.4972C168.245 87.8707 169.662 86.4931 171.317 85.4554C172.972 84.4177 174.828 83.7436 176.763 83.4777C178.697 83.2117 180.666 83.3601 182.539 83.9128C184.413 84.4655 186.147 85.4101 187.629 86.684C184.801 88.983 181.397 90.461 177.788 90.9571C174.179 91.4531 170.504 90.9481 167.162 89.4972Z" fill="#1CA33A"/>
<path d="M165.448 94.8872C165.972 91.2706 165.045 87.5932 162.868 84.6598C160.691 81.7263 157.442 79.7757 153.832 79.2349C153.496 82.6467 154.319 86.0723 156.17 88.9571C158.007 91.8096 160.845 94.0038 165.448 94.8872Z" fill="#1CA33A"/>
<path d="M163.295 101.948C165.054 98.7399 167.981 96.3339 171.466 95.2305C174.951 94.127 178.727 94.4111 182.009 96.0237C179.626 98.4887 176.667 100.321 173.401 101.355C170.134 102.39 166.661 102.593 163.295 101.948Z" fill="#1CA33A"/>
<path d="M187.387 56.0659C172.838 72.113 163.783 92.3885 161.537 113.943" stroke="#126943" stroke-miterlimit="10" stroke-linecap="round"/>
<path d="M165.493 116.593C166.876 110.994 169.396 105.741 172.897 101.159C176.397 96.5784 180.802 92.7682 185.838 89.9664C190.873 87.1645 196.431 85.4311 202.165 84.8741C207.899 84.3172 213.686 84.9486 219.166 86.7291C218.017 92.4639 215.624 97.8762 212.157 102.584C208.689 107.291 204.231 111.178 199.098 113.971C188.82 119.468 176.069 120.059 165.493 116.593Z" fill="#1F918C"/>
<path d="M212.523 89.7672C194.886 96.5752 179.036 107.329 166.184 121.207" stroke="#166673" stroke-miterlimit="10" stroke-linecap="round"/>
<path d="M200.357 87.0497L198.3 96.2543" stroke="#166673" stroke-miterlimit="10" stroke-linecap="round"/>
<path d="M184.448 92.4285C183.687 96.6153 183.528 100.889 183.976 105.121" stroke="#166673" stroke-miterlimit="10" stroke-linecap="round"/>
<path d="M171.759 105.498C171.578 108.368 172.197 111.231 173.546 113.769" stroke="#166673" stroke-miterlimit="10" stroke-linecap="round"/>
<path d="M212.518 95.9112C209.221 96.1477 205.914 95.6002 202.869 94.3133" stroke="#166673" stroke-miterlimit="10" stroke-linecap="round"/>
<path d="M202.639 108.587C198.099 107.066 193.889 104.697 190.23 101.605" stroke="#166673" stroke-miterlimit="10" stroke-linecap="round"/>
<path d="M189.697 116.785C185.193 115.735 181.068 113.454 177.783 110.196" stroke="#166673" stroke-miterlimit="10" stroke-linecap="round"/>
<path d="M46.3339 168.423C71.9234 168.423 92.6678 164.435 92.6678 159.516C92.6678 154.597 71.9234 150.61 46.3339 150.61C20.7444 150.61 0 154.597 0 159.516C0 164.435 20.7444 168.423 46.3339 168.423Z" fill="#5E96D6"/>
<path d="M41.4448 163.438C42.2766 164.209 44.8166 164.197 46.3733 164.979C57.4721 160.478 66.8962 156.81 77.5061 152.376C78.6974 148.748 79.2763 144.787 78.2647 141.124C77.2532 137.461 74.3872 134.108 70.9592 132.881L38.4552 141.912C39.2757 148.579 40.0961 155.24 41.4448 163.438Z" fill="#F7AA36"/>
<path d="M8.42944 161.947C9.80431 159.507 10.6027 156.783 10.7634 153.986C10.9242 151.189 10.443 148.393 9.35668 145.811C20.5014 145.717 31.6419 146.281 42.7205 147.498C44.4401 147.69 46.2103 147.909 47.7332 148.691C51.2848 150.514 52.4649 155.201 50.8071 158.678C49.1493 162.155 45.2381 164.36 41.619 164.67C30.6282 163.028 19.5407 162.118 8.42944 161.947Z" fill="#FEEDE3"/>
<path d="M49.5652 150.784L16.1733 150.61L49.5484 152.185C49.411 151.977 49.3391 151.732 49.3421 151.482C49.3451 151.232 49.4228 150.989 49.5652 150.784Z" fill="#DBB9AB"/>
<path d="M51.5321 153.98L25.4514 153.457L51.2624 155.145C51.2295 154.738 51.3238 154.331 51.5321 153.98Z" fill="#DBB9AB"/>
<path d="M51.4478 156.973L31.3239 156.41C37.8876 156.748 44.4438 157.256 50.9926 157.935C50.988 157.75 51.0268 157.567 51.1058 157.4C51.1849 157.233 51.302 157.087 51.4478 156.973Z" fill="#DBB9AB"/>
<path d="M49.6383 159.741L14.9146 158.723L48.8909 160.833C49.0627 160.421 49.3171 160.05 49.6383 159.741Z" fill="#DBB9AB"/>
<path d="M7.13691 143.976C19.4495 143.779 31.7734 144.286 44.2546 145.304C46.0385 145.426 47.7329 146.131 49.0763 147.313C50.3408 148.435 51.3241 149.839 51.9469 151.411C52.5697 152.984 52.8145 154.681 52.6616 156.365C52.2738 159.696 50.0822 162.751 47.1656 164.552C45.6733 165.448 43.9379 165.853 42.2035 165.711C30.464 164.872 18.7246 164.023 6.92337 163.072C6.86547 162.074 7.0587 161.078 7.48533 160.174C18.4099 160.985 29.3345 161.795 40.7536 162.605C44.7435 162.886 48.4975 160.416 49.2898 156.72C49.4372 156.021 49.477 155.304 49.4078 154.593C49.0426 150.829 45.5809 148.005 41.5741 147.892L7.38418 146.936C7.38663 145.944 7.30391 144.954 7.13691 143.976Z" fill="#FFBF46"/>
<path d="M73.7915 129.967C73.3913 131.842 72.8039 133.673 72.0382 135.43C66.1375 137.743 60.0739 139.931 53.9148 141.923L51.5939 142.671L49.5371 143.318L47.2893 144.021C44.4495 144.88 41.5947 145.707 38.7249 146.503C37.9951 145.438 37.338 144.325 36.7581 143.172C38.2135 136.657 38.2135 131.329 37.0896 126.248L68.9923 120.532C70.8511 121.202 72.378 122.567 73.252 124.341C73.9959 126.118 74.184 128.08 73.7915 129.967Z" fill="#3878E8"/>
<path d="M51.6108 135.396C51.6135 138.174 50.8992 140.904 49.5371 143.324L47.2893 144.027C48.6807 141.393 49.4153 138.461 49.4304 135.481C49.3498 131.928 48.0274 128.515 45.6933 125.837C46.4871 125.788 47.2761 125.679 48.0535 125.511C50.3539 128.29 51.6122 131.787 51.6108 135.396Z" fill="#FFBF46"/>
<path d="M55.6906 134.552C55.6914 137.117 55.0827 139.646 53.9148 141.928L51.5939 142.677C52.8338 140.178 53.4819 137.427 53.4877 134.637C53.4072 131.084 52.0848 127.671 49.7507 124.993C50.5445 124.944 51.3334 124.835 52.1109 124.667C54.4194 127.443 55.6857 130.94 55.6906 134.552Z" fill="#FFBF46"/>
<path d="M5.30493 143.116C6.58955 140.943 7.33907 138.495 7.49152 135.975C7.64396 133.455 7.19494 130.934 6.1816 128.622C16.5722 128.544 26.959 129.055 37.2919 130.153C38.8992 130.231 40.48 130.593 41.9618 131.222C45.2718 132.859 46.3732 137.067 44.8278 140.19C43.2824 143.313 39.6353 145.293 36.2635 145.569C26.0067 144.091 15.6661 143.272 5.30493 143.116Z" fill="#FEEDE3"/>
<path d="M43.6702 133.106L20.8433 132.949L43.6534 134.367C43.5598 134.169 43.5126 133.953 43.5155 133.735C43.5185 133.516 43.5714 133.301 43.6702 133.106Z" fill="#DBB9AB"/>
<path d="M45.5191 135.959L14.4874 135.486L45.1931 137.022C45.1571 136.639 45.2743 136.256 45.5191 135.959Z" fill="#DBB9AB"/>
<path d="M45.4235 138.665L22.1133 138.187C29.7185 138.491 37.3088 138.948 44.8841 139.56C44.8811 139.375 44.9301 139.193 45.0255 139.035C45.1209 138.877 45.2588 138.749 45.4235 138.665Z" fill="#DBB9AB"/>
<path d="M43.732 141.135L14.0491 140.218L43.0689 142.114C43.2237 141.747 43.449 141.415 43.732 141.135Z" fill="#DBB9AB"/>
<path d="M4.10232 126.974C15.5832 126.799 27.0754 127.25 38.7137 128.167C40.367 128.27 41.9433 128.903 43.2094 129.973C44.3847 130.955 45.3051 132.207 45.8923 133.623C46.4794 135.039 46.7157 136.576 46.5812 138.103C46.2215 141.096 44.176 143.836 41.4561 145.456C40.0548 146.263 38.4424 146.626 36.8311 146.497C25.884 145.743 14.9145 144.984 3.92811 144.128C3.8718 143.23 4.04794 142.333 4.43949 141.523C14.6279 142.249 24.8163 142.981 35.4599 143.706C39.1801 143.96 42.6811 141.743 43.4173 138.418C43.485 138.102 43.5301 137.783 43.5522 137.461C43.5774 137.143 43.5774 136.823 43.5522 136.505C43.2094 133.129 39.9837 130.586 36.2467 130.485L4.31024 129.629C4.325 128.74 4.25538 127.85 4.10232 126.974Z" fill="#3C97FE"/>
<path d="M71.9876 114.298C71.9876 117.454 70.5602 120.487 68.4416 123.3C59.703 125.269 50.9589 127.238 42.2821 129.095C35.8533 120.402 25.5581 117.364 18.2582 113.791C17.8423 113.589 17.4377 113.386 17.0443 113.178C15.017 112.196 13.0752 111.046 11.2393 109.741C21.6356 108.373 32.0319 107.006 42.3496 105.628C50.3632 106.005 58.3824 106.382 66.795 106.584H67.357C70.2792 107.895 71.9707 111.141 71.9876 114.298Z" fill="#C42D97"/>
<path d="M56.8089 122.439L52.2177 123.497C52.6783 122.137 52.839 120.694 52.6886 119.266C52.5382 117.838 52.0804 116.46 51.3466 115.226C52.8583 114.939 54.37 114.664 56.1065 114.483C56.8705 115.648 57.3346 116.985 57.4571 118.373C57.5797 119.761 57.357 121.158 56.8089 122.439Z" fill="#F7AA36"/>
<path d="M66.8175 106.584C57.4148 109.208 47.7909 110.96 38.0674 111.817L31.47 114.607C27.0575 114.996 22.6118 114.721 18.2807 113.791C17.8648 113.589 17.4602 113.386 17.0668 113.178C15.0317 112.197 13.0823 111.048 11.2393 109.741C21.6356 108.373 32.0319 107.006 42.3496 105.628C50.3857 106.005 58.4049 106.382 66.8175 106.584Z" fill="#F74DB3"/>
<path d="M47.4972 109.116L32.8861 108.092C29.6773 108.424 26.7495 108.762 23.8441 109.217C28.9355 109.335 34.9373 109.831 39.9669 110.179C42.6418 109.859 44.6312 109.6 47.4972 109.116Z" fill="#FEEDE3"/>
<path d="M11.7282 126.074C12.8955 123.857 13.5697 121.414 13.7046 118.913C13.8394 116.411 13.4317 113.909 12.5093 111.58C21.9351 111.494 31.3569 111.998 40.7199 113.088C42.1876 113.17 43.626 113.533 44.9571 114.157C47.958 115.794 48.9583 120.003 47.5534 123.125C46.8256 124.611 45.7296 125.886 44.3701 126.828C43.0105 127.769 41.4327 128.346 39.7871 128.504C30.5026 127.036 21.1265 126.224 11.7282 126.074Z" fill="#FEEDE3"/>
<path d="M46.5194 116.064L19.6688 115.901L46.5082 117.319C46.397 117.128 46.3394 116.911 46.3414 116.69C46.3434 116.469 46.4049 116.253 46.5194 116.064Z" fill="#DBB9AB"/>
<path d="M48.1828 118.917L26.9742 118.444L47.9636 119.98C47.9338 119.612 48.0099 119.243 48.1828 118.917Z" fill="#DBB9AB"/>
<path d="M48.1097 121.623L20.5735 121.145C29.5649 121.449 38.532 121.906 47.4747 122.518C47.4768 122.322 47.5388 122.131 47.6523 121.971C47.7658 121.811 47.9254 121.69 48.1097 121.623Z" fill="#DBB9AB"/>
<path d="M46.5756 124.093L29.9527 123.176L46.2103 125.072C46.2866 124.731 46.4095 124.401 46.5756 124.093Z" fill="#DBB9AB"/>
<path d="M10.638 109.937C21.1153 109.793 31.5931 110.191 42.0293 111.13C43.556 111.246 44.9965 111.883 46.1092 112.936C47.1907 113.977 48.0245 115.248 48.5488 116.656C49.0731 118.063 49.2745 119.57 49.1382 121.066C48.9405 122.555 48.4226 123.984 47.6203 125.253C46.8179 126.523 45.7502 127.603 44.4907 128.42C43.2451 129.218 41.7721 129.583 40.2985 129.461C30.3742 128.707 20.4443 127.947 10.4638 127.092C10.4117 126.199 10.5715 125.306 10.9302 124.487C20.1689 125.213 29.4076 125.944 39.0621 126.67C39.9617 126.775 40.8731 126.694 41.7402 126.433C42.6073 126.171 43.4117 125.734 44.1036 125.149C44.7955 124.564 45.3603 123.844 45.7631 123.032C46.1659 122.219 46.3981 121.333 46.4455 120.428C46.4928 119.522 46.3542 118.617 46.0383 117.767C45.7224 116.917 45.2359 116.142 44.6087 115.488C43.9816 114.833 43.2272 114.315 42.3921 113.964C41.557 113.614 40.6589 113.438 39.7534 113.448L10.8403 112.593C10.8436 111.704 10.7759 110.816 10.638 109.937Z" fill="#EA33AA"/>
<path d="M125.088 172.198C156.903 172.198 182.694 166.908 182.694 160.383C182.694 153.857 156.903 148.567 125.088 148.567C93.2721 148.567 67.4807 153.857 67.4807 160.383C67.4807 166.908 93.2721 172.198 125.088 172.198Z" fill="#5E96D6"/>
<path d="M122.508 160.073C130.634 160.135 138.732 161.598 146.852 161.198C154.973 160.799 163.515 158.183 168.539 151.786C174.529 144.156 173.99 133.135 170.86 123.508C154.001 122.996 137.142 122.478 120.468 121.258C118.962 122.017 117.344 122.54 115.456 123.311C115.315 123.902 114.5 124.048 113.944 123.823C113.387 123.598 112.955 123.131 112.393 122.878C112.066 122.733 111.71 122.666 111.352 122.684C110.995 122.701 110.647 122.802 110.336 122.979C109.777 123.326 109.352 123.851 109.128 124.47C102.626 122.627 95.8189 122.12 89.1163 122.979C86.603 126.975 84.5446 131.24 82.9796 135.695C94.0203 142.754 104.761 150.246 115.203 158.172" fill="#0D409E"/>
<path d="M104.02 76.2361C102.7 74.5543 101.261 72.9692 99.7149 71.4931C96.6634 73.3273 94.3425 76.2079 92.651 79.3699C90.9595 82.5319 89.8412 85.9133 88.7173 89.3003C88.3314 90.1962 88.1992 91.1811 88.3351 92.1472C88.6001 92.9769 89.0789 93.7221 89.7232 94.3077C91.8943 96.6011 94.3494 98.6072 97.0287 100.277C102.196 93.3783 104.68 84.8336 104.02 76.2361Z" fill="#BA68D6"/>
<path d="M172.939 130.451C169.03 128.593 164.782 127.557 160.458 127.407C156.134 127.257 151.824 127.996 147.797 129.579C143.424 131.334 139.322 134.108 134.63 134.502C130.786 134.822 126.948 133.467 123.677 131.413C120.406 129.359 117.625 126.631 114.865 123.93C115.311 121.576 116.398 119.391 118.007 117.617C106.076 105.493 99.3608 88.9852 98.7539 72.1907C106.751 65.4476 116.196 60.6454 126.352 58.1588C137.205 59.586 147.389 64.214 155.608 71.4537C163.717 94.6227 170.399 109.212 172.939 130.451Z" fill="#A25ED6"/>
<path d="M130.724 144.944L93.6064 128.487C89.1444 126.512 84.6149 124.509 79.7427 123.986C74.8705 123.463 69.5993 124.723 66.3455 128.358C62.8445 132.263 62.4117 138.316 64.4348 143.149C66.4579 147.982 70.667 151.662 75.3313 154.047C79.9956 156.433 85.16 157.665 90.2852 158.757C102.53 161.362 114.905 163.286 127.274 165.21C128.931 158.74 130.589 152.264 130.724 144.944Z" fill="#0750B5"/>
<path d="M157.603 173.61C156.563 175.269 155.124 176.639 153.416 177.593C148.92 180.069 142.84 179.18 139.468 175.692C138.888 175.075 138.399 174.38 138.013 173.627C137.957 173.52 137.895 173.402 137.833 173.295C135.951 169.768 133.888 166.34 131.651 163.027C135.95 160.776 140.148 158.329 146.116 155.066C149.114 156.084 151.953 157.524 154.546 159.342C156.382 160.609 157.781 162.415 158.547 164.512C159.103 165.999 159.307 167.594 159.143 169.172C158.979 170.751 158.452 172.27 157.603 173.61Z" fill="#14133B"/>
<path d="M157.603 173.61C156.563 175.269 155.124 176.639 153.416 177.593C148.92 180.069 142.84 179.18 139.468 175.692C138.888 175.075 138.398 174.38 138.013 173.627C137.957 173.52 137.895 173.402 137.833 173.295C142.3 175.793 148.004 176.142 152.444 173.604C154.064 172.627 155.451 171.305 156.508 169.734C157.564 168.162 158.264 166.378 158.558 164.507C159.111 165.995 159.312 167.591 159.146 169.17C158.981 170.75 158.452 172.269 157.603 173.61Z" fill="#515D82"/>
<path d="M100.142 169.773C94.0952 172.282 88.1553 175.033 82.3221 178.027L82.0917 178.139C80.2934 179.027 78.2381 179.243 76.2946 178.751C74.3511 178.258 72.6468 177.087 71.4874 175.45C71.2806 175.153 71.0929 174.843 70.9254 174.521C69.3407 171.32 69.6723 167.432 71.0154 164.124C71.1334 163.832 71.2626 163.561 71.3975 163.252C72.421 161.1 73.9489 159.228 75.8511 157.794C77.7532 156.361 79.9733 155.41 82.3221 155.021C82.98 154.907 83.6445 154.836 84.3114 154.807C87.8125 154.666 91.4427 154.593 95.0674 154.655C97.4501 161.08 98.7989 165.413 100.142 169.773Z" fill="#14133B"/>
<path d="M82.0917 178.139C80.2934 179.027 78.2381 179.243 76.2946 178.751C74.3511 178.258 72.6468 177.087 71.4874 175.45C71.2806 175.153 71.0929 174.843 70.9254 174.521C69.3407 171.32 69.6723 167.432 71.0154 164.124C71.1334 163.832 71.2626 163.562 71.3975 163.252C72.421 161.1 73.9489 159.228 75.8511 157.794C77.7532 156.361 79.9733 155.41 82.3221 155.021C79.8495 156.278 77.6315 157.983 75.7808 160.051C72.6788 163.725 71.3694 169.351 74.0219 173.357C75.8145 176.102 78.8323 177.402 82.0917 178.139Z" fill="#515D82"/>
<path d="M101.671 174.977C119.305 170.583 137.136 165.93 152.899 156.973C158.384 153.851 163.801 149.974 166.555 144.337C169.308 138.699 168.494 130.94 163.256 127.418C159.828 125.117 155.265 125.055 151.292 126.226C147.319 127.396 143.784 129.646 140.232 131.762C124.872 140.911 108.354 147.956 91.1224 152.708C91.0376 156.985 91.9462 161.222 93.7768 165.087C95.6073 168.951 98.3096 172.337 101.671 174.977Z" fill="#065CBD"/>
<path d="M93.005 48.2678C92.6508 47.6784 92.1591 47.1837 91.5721 46.8262C90.985 46.4688 90.3201 46.2592 89.6344 46.2155C88.9487 46.1718 88.2626 46.2953 87.635 46.5753C87.0074 46.8553 86.457 47.2836 86.031 47.8234C85.5579 48.4851 85.237 49.2434 85.0913 50.044C84.9455 50.8446 84.9786 51.6675 85.1881 52.4538C85.6418 54.3887 86.8365 56.0678 88.5149 57.1292C90.2225 58.1356 92.2108 58.5582 94.1795 58.3333C93.7243 55.3626 95.1292 51.8236 93.005 48.2678Z" fill="#EF9281"/>
<path d="M129.814 65.7093C129.129 69.5194 127.375 73.0556 124.756 75.9041C123.778 76.9281 122.587 77.8677 121.188 78.0533C119.894 78.1678 118.606 77.7744 117.597 76.9562C117.467 76.8606 117.344 76.7593 117.22 76.6524C116.173 75.6582 115.271 74.5219 114.539 73.2766C114.131 72.7714 113.931 72.1298 113.978 71.4818C114.148 70.9678 114.479 70.5221 114.922 70.2103C120.274 65.691 125.374 60.8788 130.196 55.7958C130.581 59.1002 130.452 62.4444 129.814 65.7093Z" fill="#FFBD9A"/>
<path d="M129.814 65.7093C128.872 67.713 127.633 69.5625 126.138 71.1949C123.78 73.7549 120.857 75.7277 117.602 76.9562C117.473 76.8606 117.349 76.7593 117.226 76.6524C116.179 75.6582 115.277 74.5219 114.545 73.2766C114.137 72.7714 113.936 72.1298 113.983 71.4818C114.154 70.9678 114.485 70.5221 114.927 70.2103C120.28 65.691 125.379 60.8788 130.201 55.7958C130.585 59.1005 130.454 62.4447 129.814 65.7093Z" fill="#EF9281"/>
<path d="M140.401 37.4879C140.188 42.1971 138.243 46.5856 135.877 51.3116C127.364 51.2341 118.854 51.7153 110.403 52.752L95.0731 52.1894C90.0974 49.4268 85.8664 45.4958 82.7436 40.7343C82.5525 40.4529 82.3727 40.1716 82.1816 39.8791C81.5129 38.7876 80.8835 37.5554 81.0914 36.2951C81.2993 35.0348 82.7492 33.949 83.8619 34.5735C81.584 31.9488 80.2227 28.6521 79.9843 25.1832C79.855 24.0884 79.984 22.9784 80.3609 21.9425C80.5525 21.4295 80.8661 20.9708 81.2743 20.6062C81.6826 20.2416 82.1733 19.9819 82.7042 19.8495C83.2111 19.7453 83.7384 19.8194 84.1971 20.0592C84.6557 20.2991 85.0177 20.69 85.2218 21.1661C84.3452 18.291 83.2662 15.0672 84.452 12.2147C84.9086 11.0818 85.7292 10.1336 86.7841 9.51967C89.3073 8.10185 92.4712 9.15959 95.0506 10.4705C97.63 11.7814 100.339 13.3905 103.205 12.9855C102.081 12.2203 102.204 10.3299 103.238 9.5253C104.272 8.72074 105.778 8.82764 106.975 9.35088C108.172 9.87413 109.178 10.7574 110.28 11.4664C113.09 13.3118 116.523 14.0151 119.833 14.634C123.143 15.2528 126.577 15.8717 129.493 17.5709C130.355 18.0725 131.152 18.6792 131.865 19.3769C133.601 21.0648 134.781 23.3153 134.72 25.7008C138.704 27.715 140.609 32.8012 140.401 37.4879Z" fill="#14133B"/>
<path d="M131.893 19.3882C129.683 18.2095 127.253 17.5008 124.756 17.3064C120.676 16.8788 116.27 16.8788 112.825 14.6283C112.143 14.1084 111.423 13.6384 110.673 13.2218C110.296 13.0137 109.876 12.8962 109.446 12.8786C109.016 12.861 108.588 12.9438 108.195 13.1205C107.985 13.2449 107.804 13.4134 107.666 13.6145C107.527 13.8155 107.434 14.0443 107.392 14.2851C107.35 14.5258 107.361 14.7727 107.424 15.0088C107.487 15.2449 107.601 15.4644 107.757 15.6523C103.901 15.993 100.021 15.3906 96.4498 13.8969C94.8201 13.2105 93.1062 12.3159 91.3922 12.6816C89.3129 13.1149 87.9698 15.3035 87.8068 17.4246C87.6439 19.5457 88.3688 21.6274 89.1387 23.6135C87.5877 22.2126 84.8734 22.8258 83.6483 24.525C82.4232 26.2241 82.485 28.5928 83.2662 30.5338C84.0473 32.4749 85.4578 34.0896 86.8346 35.665C84.9633 35.5356 83.3617 37.2347 82.9346 39.0407C82.8078 39.594 82.7511 40.1611 82.766 40.7286C82.5749 40.4473 82.3951 40.166 82.204 39.8734C81.5353 38.7819 80.9059 37.5498 81.1138 36.2895C81.3218 35.0292 82.7716 33.9433 83.8843 34.5679C81.6064 31.9431 80.2451 28.6465 80.0068 25.1776C79.8711 24.0863 79.9924 22.9785 80.3608 21.9425C80.5525 21.4295 80.866 20.9708 81.2743 20.6062C81.6825 20.2416 82.1733 19.9819 82.7042 19.8495C83.2111 19.7453 83.7383 19.8194 84.197 20.0592C84.6557 20.2991 85.0176 20.69 85.2218 21.1661C84.3451 18.291 83.2662 15.0672 84.4519 12.2147C84.9086 11.0818 85.7292 10.1336 86.784 9.51967C89.3073 8.10185 92.4711 9.15959 95.0505 10.4705C97.63 11.7814 100.339 13.3905 103.205 12.9855C102.081 12.2203 102.204 10.3299 103.238 9.5253C104.272 8.72074 105.778 8.82764 106.975 9.35088C108.172 9.87413 109.178 10.7574 110.28 11.4664C113.09 13.3118 116.523 14.0151 119.833 14.634C123.143 15.2528 126.577 15.8717 129.493 17.5709C130.366 18.0741 131.172 18.6846 131.893 19.3882Z" fill="#2C245C"/>
<path d="M139.558 54.0966C138.87 55.3492 137.739 56.2991 136.388 56.7602C135.036 57.2213 133.562 57.1603 132.253 56.5891C129.69 61.3883 126.824 65.7093 122.89 68.86C118.957 72.0107 113.837 73.9236 108.841 73.2316C101.536 72.2639 95.7812 66.0412 93.1905 59.1265C90.8752 52.9376 90.6111 46.2424 90.5942 39.6146C90.5942 38.8269 90.5942 38.0392 90.5942 37.2516C93.9991 38.3689 97.6193 38.6654 101.16 38.1169C104.701 37.5684 108.063 36.1904 110.971 34.0952C110.536 34.9643 110.382 35.9478 110.533 36.9084C110.585 37.3863 110.753 37.8444 111.021 38.2432C111.289 38.6421 111.65 38.9698 112.072 39.1983C112.934 39.5047 113.875 39.5047 114.736 39.1983C118.357 38.216 121.632 36.2423 124.194 33.4988C123.869 38.3156 125.183 43.1006 127.92 47.075C128.552 48.0059 129.252 48.8879 130.016 49.7138C130.288 49.0531 130.688 48.4535 131.195 47.9501C131.701 47.4467 132.303 47.0497 132.964 46.7824C133.626 46.5151 134.335 46.3829 135.048 46.3935C135.762 46.4042 136.466 46.5574 137.119 46.8444C138.374 47.5125 139.326 48.6362 139.78 49.9848C140.233 51.3334 140.154 52.8047 139.558 54.0966Z" fill="#FFBD9A"/>
<path d="M127.942 47.075C125.101 44.9707 123.137 41.8886 122.429 38.4218C118.844 41.7132 112.775 42.7991 110.347 40.9312C109.336 40.1491 108.397 38.9113 108.858 37.5554C106.103 39.0838 103.074 40.0512 99.9441 40.4017C96.8143 40.7523 93.6461 40.479 90.6223 39.5977C90.6223 38.81 90.6223 38.0224 90.6223 37.2347C94.0271 38.352 97.6474 38.6485 101.188 38.1C104.729 37.5515 108.091 36.1736 110.999 34.0783C110.564 34.9474 110.41 35.931 110.561 36.8915C110.613 37.3694 110.781 37.8275 111.049 38.2264C111.317 38.6252 111.678 38.9529 112.101 39.1814C112.962 39.4878 113.903 39.4878 114.764 39.1814C118.373 38.1991 121.638 36.2316 124.194 33.4988C123.876 38.3182 125.197 43.1034 127.942 47.075Z" fill="#EF9281"/>
<path d="M111.269 45.0721C111.647 44.0617 112.369 43.2171 113.308 42.6865C114.246 42.1559 115.342 41.9733 116.401 42.1707C117.461 42.3681 118.417 42.9329 119.102 43.766C119.788 44.5991 120.158 45.6471 120.148 46.7262C119.728 46.0114 119.159 45.3953 118.48 44.9197C117.802 44.444 117.029 44.1199 116.214 43.9694C114.487 43.7381 112.734 44.1289 111.269 45.0721Z" fill="#14133B"/>
<path d="M101.21 45.7022C100.696 44.4791 99.7604 43.481 98.5741 42.8891C97.9836 42.6058 97.3336 42.4691 96.6792 42.4906C96.0248 42.5122 95.3852 42.6913 94.8146 43.0129C94.2476 43.3532 93.7984 43.859 93.5271 44.4625C93.2559 45.066 93.1757 45.7382 93.2973 46.3886C94.274 45.2707 95.6416 44.57 97.1186 44.4307C98.5965 44.2971 100.067 44.7542 101.21 45.7022Z" fill="#14133B"/>
<path d="M104.896 55.295C104.805 55.9997 104.858 56.7155 105.051 57.3992C105.244 58.0829 105.574 58.7203 106.02 59.2728" stroke="#C44547" stroke-width="2" stroke-linecap="round" stroke-linejoin="round"/>
<path d="M106.992 64.5559C108.61 65.2041 110.409 65.2381 112.05 64.6517C113.692 64.0653 115.063 62.8987 115.905 61.3714" stroke="#C44547" stroke-width="2" stroke-linecap="round" stroke-linejoin="round"/>
<path d="M100.119 53.8716C100.822 53.7872 101.496 54.5749 101.626 55.627C101.755 56.6791 101.283 57.6075 100.575 57.6919C99.8666 57.7763 99.1922 56.9886 99.0686 55.9365C98.945 54.8843 99.4114 53.956 100.119 53.8716Z" fill="#14133B"/>
<path d="M114.377 53.3934C115.079 53.309 115.753 54.0967 115.883 55.1544C116.012 56.2121 115.54 57.1292 114.832 57.2136C114.124 57.298 113.455 56.516 113.326 55.4582C113.196 54.4005 113.668 53.4778 114.377 53.3934Z" fill="#14133B"/>
<path d="M160.581 95.5511C163.073 104.179 164.498 113.081 164.824 122.056C158.307 120.427 152.129 117.655 146.577 113.87C146.825 109.523 146.605 105.162 145.92 100.862C150.831 100.243 155.698 99.2531 160.581 95.5511Z" fill="#EF9281"/>
<path d="M142.435 109.217C150.947 108.35 158.892 104.55 164.914 98.4655C162.951 90.4662 160.561 82.578 157.755 74.8351C156.963 72.6512 155.44 70.809 153.446 69.6214C151.451 68.4337 149.108 67.9739 146.813 68.3199H146.661C144.317 68.7035 142.184 69.9074 140.642 71.7175C139.101 73.5276 138.251 75.8266 138.243 78.2053C138.049 88.6963 139.463 99.1552 142.435 109.217Z" fill="#BA68D6"/>
<path d="M136.243 112.419C138.94 117.834 142.272 122.909 146.167 127.536C148.566 130.389 151.59 133.258 155.316 133.348C156.552 133.336 157.771 133.06 158.892 132.537C160.012 132.014 161.008 131.256 161.812 130.316C163.41 128.416 164.453 126.11 164.824 123.654C165.201 121.516 165.161 119.153 163.959 117.353C163.144 116.132 161.891 115.294 160.666 114.483L140.491 101.132C139.283 105.138 138.097 109.15 136.243 112.419Z" fill="#FFBD9A"/>
<path d="M72.8979 105.104C73.2129 110.613 73.9646 116.088 75.1458 121.477C75.7078 124.127 76.4889 126.895 78.4164 128.791C80.8554 131.199 84.7947 131.666 88.0092 130.479C91.2236 129.292 93.7581 126.681 95.5114 123.727C97.2647 120.774 98.3212 117.482 99.3777 114.213C91.7294 109.774 83.2887 106.725 72.8979 105.104Z" fill="#F7A98B"/>
<path d="M88.189 112.7C89.4099 115.309 90.3517 118.04 90.9988 120.847" stroke="#ED8C74" stroke-miterlimit="10" stroke-linecap="round"/>
<path d="M91.3697 96.1756C92.8589 90.9038 97.6693 87.2523 102.609 84.8949C110.643 81.0345 119.684 79.7929 128.459 81.3447C129.769 90.8419 131.084 100.333 132.59 109.819L128.656 111.507C123.919 107.237 118.187 104.193 112.23 101.909C106.273 99.6245 100.08 98.111 91.3697 96.1756Z" fill="white"/>
<path d="M92.1171 96.4288C92.3568 91.4452 90.7295 86.5515 87.554 82.7063C84.4013 78.8795 79.8675 76.4532 74.9379 75.9547C76.0112 79.0154 77.0902 82.0705 78.1748 85.165C82.4569 87.8599 86.5031 90.9319 92.1171 96.4288Z" fill="#E1EDF2"/>
<path d="M92.252 97.1321C91.7311 92.2881 89.5296 87.7805 86.0311 84.3942C82.5003 81.0153 77.8813 79.0083 73.0047 78.7341C71.9074 80.7998 71.0765 82.9966 70.5321 85.2719L87.2899 102.37C88.4475 100.598 90.0098 99.1181 92.252 97.1321Z" fill="white"/>
<path d="M130.454 112.565C126.173 112.318 121.885 112.94 117.85 114.396C113.815 115.851 110.116 118.108 106.975 121.032H106.779C105.554 121.196 104.598 121.263 103.727 121.297L102.688 121.331C102.631 121.224 102.57 121.123 102.508 121.021C100.418 117.58 97.0957 115.067 93.2186 113.994C89.2115 112.862 84.9325 113.202 81.1532 114.95C76.8149 104.311 72.5833 93.9532 68.3573 83.5896C77.1127 83.5221 85.6377 87.708 90.0435 94.7071C90.0884 94.769 90.1278 94.8365 90.1671 94.8984C91.1114 95.2805 92.108 95.5176 93.1231 95.6017C93.3703 95.6017 93.6232 95.6467 93.8761 95.658C93.8761 95.5961 93.9267 95.5342 93.9604 95.4723C95.0112 93.5425 97.4558 91.5339 100.844 89.8798C106.925 86.8528 116.017 84.7767 125.526 85.6207C126.622 92.1022 127.819 98.5611 129.111 105.448C129.55 107.788 129.994 110.146 130.454 112.565Z" fill="#FFBF46"/>
<path d="M103.727 121.325L102.688 121.359C102.631 121.252 102.57 121.151 102.508 121.049C100.418 117.608 97.0957 115.095 93.2186 114.022C89.2115 112.891 84.9325 113.23 81.1532 114.979C76.8149 104.339 72.5833 93.9813 68.3573 83.6177C77.1127 83.5502 85.6377 87.7362 90.0435 94.7352C90.0884 94.7971 90.1278 94.8646 90.1671 94.9265C91.1114 95.3086 92.108 95.5457 93.1231 95.6298C94.1121 97.7341 95.0393 99.782 95.9666 101.819C98.8551 108.21 101.744 114.613 103.727 121.325Z" fill="#F7AA36"/>
<path d="M129.111 105.476C127.145 99.8526 125.531 94.112 124.278 88.2875C116.473 86.5774 108.341 87.1397 100.844 89.9079C106.925 86.881 116.017 84.8049 125.526 85.6488C126.622 92.1303 127.819 98.6005 129.111 105.476Z" fill="#FFDB80"/>
<path d="M106.773 121.061C105.416 121.239 104.05 121.339 102.682 121.359C102.626 121.252 102.564 121.151 102.502 121.049C98.3811 112.422 94.26 103.818 90.139 95.236L90.0547 94.7353C90.0996 94.7971 90.139 94.8647 90.1783 94.9266C91.3613 95.3932 92.6163 95.6503 93.8873 95.6861C93.8873 95.6242 93.9379 95.5623 93.9716 95.5004C98.0739 103.912 102.412 112.481 106.773 121.061Z" fill="#FFDB80"/>
<path d="M125.391 96.0743C123.019 96.1249 120.524 96.2037 118.479 97.4077C117.859 97.7328 117.354 98.2391 117.029 98.8593C116.874 99.1722 116.816 99.5244 116.863 99.8705C116.91 100.217 117.06 100.541 117.293 100.8C117.803 101.19 118.433 101.389 119.075 101.363L128.117 101.926C127.898 99.7219 126.937 97.6583 125.391 96.0743Z" fill="#F7AA36"/>
<path d="M119.007 105.211C118.52 105.468 118.089 105.818 117.737 106.241C117.564 106.455 117.442 106.705 117.38 106.973C117.318 107.241 117.317 107.52 117.377 107.788C117.456 108.034 117.585 108.26 117.755 108.454C117.925 108.647 118.133 108.804 118.366 108.913C118.829 109.149 119.35 109.249 119.867 109.2C119.554 109.637 119.399 110.167 119.429 110.703C119.458 111.24 119.67 111.75 120.03 112.149C120.772 112.922 121.772 113.396 122.84 113.482C122.404 111.002 122.105 108.501 121.946 105.988C120.91 106.034 119.885 105.763 119.007 105.211Z" fill="#F7AA36"/>
<path d="M141.053 102.033C141.053 102.033 140.407 96.1925 136.776 93.4918C134.72 91.9615 132.337 90.5999 129.78 90.9488C130.033 92.541 130.19 94.0038 130.482 95.7986C126.74 95.6861 123.036 95.4273 119.496 96.6651C118.674 96.8861 117.943 97.3605 117.406 98.021C117.159 98.3581 117.046 98.7749 117.088 99.1906C117.131 99.6064 117.326 99.9915 117.636 100.272C118.026 100.492 118.469 100.602 118.917 100.592C122.514 100.823 126.105 101.059 129.684 101.611C127.452 103.493 124.65 104.564 121.733 104.649C120.911 104.609 120.088 104.671 119.282 104.834C118.881 104.923 118.512 105.12 118.215 105.403C117.918 105.687 117.704 106.047 117.597 106.444C117.4 107.569 118.451 108.542 119.575 109.026C119.386 109.398 119.298 109.813 119.32 110.23C119.342 110.646 119.472 111.05 119.698 111.4C120.241 112.1 121.024 112.571 121.896 112.722C121.727 113.069 121.677 113.461 121.752 113.839C121.827 114.217 122.024 114.56 122.311 114.815C122.901 115.314 123.613 115.646 124.374 115.778C128.797 116.782 133.431 116.205 137.473 114.146C139.125 110.027 141.053 102.033 141.053 102.033Z" fill="#FFBD9A"/>
<path d="M120.007 109.313C123.353 109.987 126.819 109.736 130.033 108.587" stroke="#C44547" stroke-width="2" stroke-linecap="round" stroke-linejoin="round"/>
<path d="M122.132 113.392C124.873 114.217 127.827 113.949 130.376 112.644" stroke="#C44547" stroke-width="2" stroke-linecap="round" stroke-linejoin="round"/>
<path d="M81.2094 97.5315C81.5242 97.7121 81.799 97.9549 82.0174 98.245C82.2357 98.5351 82.3929 98.8666 82.4795 99.2194C82.5617 99.5724 82.5619 99.9396 82.48 100.293C82.3982 100.646 82.2365 100.975 82.0074 101.256C81.3274 102.061 80.1923 102.274 79.1526 102.432C78.5949 102.532 78.0321 102.602 77.4667 102.64C78.1199 103.638 78.9837 104.481 79.9973 105.109C81.011 105.737 82.1498 106.135 83.3336 106.275C84.0071 106.193 84.6902 106.27 85.3286 106.5C85.6466 106.616 85.9373 106.796 86.1828 107.029C86.4284 107.263 86.6234 107.544 86.756 107.856C86.8765 108.204 86.9097 108.576 86.8529 108.94C86.7961 109.304 86.6509 109.648 86.4301 109.943C86.7387 110.289 86.9408 110.717 87.0122 111.176C87.0835 111.634 87.0211 112.104 86.8323 112.527C86.6435 112.951 86.3365 113.311 85.9481 113.565C85.5597 113.818 85.1065 113.953 84.643 113.955C83.7145 111.482 82.2346 109.253 80.3159 107.439C78.4009 105.634 76.3534 103.975 74.1905 102.477C74.9109 101.66 75.3862 100.655 75.5617 99.5795C77.555 99.2542 79.4703 98.5597 81.2094 97.5315Z" fill="#EB8328"/>
<path d="M70.1218 98.8424C70.1218 99.2138 70.1612 99.5851 70.2005 99.9677C70.2652 100.488 70.5044 100.972 70.8791 101.339C71.2537 101.705 71.7416 101.934 72.2629 101.988C74.9927 102.266 77.7471 102.186 80.4564 101.751C80.9836 101.664 81.4656 101.4 81.823 101.002C82.1804 100.604 82.3921 100.097 82.4232 99.5626V99.5232C82.457 98.9401 82.2734 98.3652 81.9079 97.9099C81.5425 97.4546 81.0212 97.1513 80.4451 97.0589C77.821 96.6656 75.1743 96.442 72.5214 96.3894C72.2005 96.3838 71.8817 96.4438 71.5847 96.5658C71.2877 96.6877 71.0187 96.8691 70.7941 97.0987C70.5695 97.3283 70.394 97.6014 70.2784 97.9012C70.1629 98.201 70.1096 98.5213 70.1218 98.8424Z" fill="#FFBD9A"/>
<path d="M72.4203 101.836C71.7804 103.686 71.7607 105.695 72.3641 107.558C72.515 108.084 72.7754 108.573 73.1283 108.992C73.3074 109.2 73.5304 109.365 73.7811 109.476C74.0319 109.587 74.3042 109.641 74.5782 109.634C74.3621 110.541 74.4591 111.495 74.8536 112.34C75.0985 113.044 75.509 113.679 76.0506 114.191C76.3249 114.442 76.6551 114.624 77.0138 114.722C77.3724 114.82 77.7493 114.831 78.113 114.754C78.3235 115.7 78.6759 116.608 79.1582 117.449C79.3981 117.861 79.7225 118.217 80.1099 118.494C80.4974 118.772 80.9391 118.964 81.4061 119.058C82.5918 119.232 83.7157 118.551 84.7217 117.904C85.5905 117.451 86.3148 116.763 86.8122 115.918C87.228 115.035 86.9639 113.758 86.0423 113.443C86.3862 112.903 86.5464 112.267 86.4988 111.629C86.4512 110.991 86.1983 110.386 85.7781 109.904C86.3963 109.465 86.3907 108.537 86.2446 107.794C86.1647 107.191 85.9218 106.621 85.5421 106.145C84.8565 105.403 83.7101 105.33 82.7042 105.431C81.6983 105.532 80.653 105.757 79.6977 105.431C78.4056 104.427 77.226 103.286 76.1798 102.027C74.966 101.965 73.7409 101.909 72.4203 101.836Z" fill="#FFBD9A"/>
<path d="M75.1402 109.887C78.3309 111.311 81.9516 111.428 85.2274 110.213" stroke="#C44547" stroke-width="2" stroke-linecap="round" stroke-linejoin="round"/>
<path d="M78.6749 115.029C81.0418 115.409 83.4681 115.033 85.6096 113.955" stroke="#C44547" stroke-width="2" stroke-linecap="round" stroke-linejoin="round"/>
<path d="M160.317 165.739C160.317 161.649 169.797 157.8 189.815 157.8C209.832 157.8 226.061 161.12 226.061 165.21C226.061 169.3 209.832 172.62 189.815 172.62C169.797 172.62 160.317 169.829 160.317 165.739Z" fill="#5E96D6"/>
<path d="M219.458 142.064C223.01 147.881 222.746 155.921 219.076 161.457C214.479 164.619 210.04 166.982 205.336 169.672C204.594 162.538 203.498 155.893 202.757 148.759C202.66 148.304 202.719 147.83 202.925 147.414C203.221 147.066 203.632 146.837 204.083 146.767C208.758 145.484 213.434 144.207 219.458 142.064Z" fill="#C42D97"/>
<path d="M166.437 167.854C167.749 165.074 168.446 162.043 168.479 158.969C168.512 155.894 167.88 152.849 166.628 150.042C178.177 149.412 189.753 149.506 201.29 150.323C203.083 150.452 204.926 150.61 206.539 151.397C210.304 153.237 211.754 158.34 210.197 162.251C208.64 166.161 204.695 168.788 200.958 169.289C189.499 167.998 177.963 167.519 166.437 167.854Z" fill="#FEEDE3"/>
<path d="M208.55 153.597L175.625 154.92L208.595 155.139C208.453 154.909 208.374 154.645 208.366 154.374C208.358 154.103 208.421 153.835 208.55 153.597Z" fill="#DBB9AB"/>
<path d="M210.736 157.024L184.712 157.643L210.523 158.34C210.468 157.89 210.542 157.434 210.736 157.024Z" fill="#DBB9AB"/>
<path d="M210.798 160.349L177.019 161.317C188.044 161.182 199.061 161.236 210.068 161.48C210.058 161.239 210.124 161.001 210.254 160.799C210.385 160.596 210.575 160.439 210.798 160.349Z" fill="#DBB9AB"/>
<path d="M209.051 163.46L188.623 163.275L208.652 164.676C208.725 164.253 208.86 163.844 209.051 163.46Z" fill="#DBB9AB"/>
<path d="M164.24 148.123C177.072 147.352 189.936 147.249 202.779 147.814C204.654 147.871 206.451 148.572 207.87 149.8C209.252 151.016 210.343 152.528 211.061 154.223C211.779 155.919 212.106 157.755 212.018 159.595C211.852 161.433 211.293 163.214 210.377 164.816C209.462 166.418 208.212 167.804 206.713 168.878C205.238 169.923 203.461 170.455 201.655 170.392C189.449 170.026 177.238 169.66 164.953 169.171C164.843 168.079 164.991 166.976 165.386 165.953C176.749 166.324 188.117 166.695 199.986 167.044C202.005 167.126 203.984 166.473 205.559 165.206C207.133 163.938 208.196 162.143 208.55 160.152C208.613 159.763 208.645 159.37 208.646 158.976C208.65 158.585 208.625 158.194 208.573 157.806C208.011 153.682 204.291 150.728 200.143 150.801L164.655 151.364C164.611 150.273 164.472 149.189 164.24 148.123Z" fill="#EA33AA"/>
<path d="M207.269 147.842C208.303 147.977 209.332 148.112 210.506 148.241C214.378 146.615 218.256 144.989 222.24 143.56C224.488 140.747 226.134 137.18 226.056 133.5C225.977 129.821 223.937 126.074 220.65 124.791L205.027 126.214C206.522 133.326 207.274 140.574 207.269 147.842Z" fill="#3878E8"/>
<path d="M167.392 146.964C168.852 144.659 169.667 142.004 169.751 139.276C169.835 136.549 169.185 133.848 167.87 131.458C180.463 130.895 193.08 130.935 205.634 131.621C207.584 131.728 209.568 131.857 211.338 132.544C212.243 132.866 213.069 133.377 213.763 134.042C214.457 134.707 215.002 135.512 215.363 136.403C215.724 137.294 215.893 138.252 215.858 139.213C215.822 140.174 215.584 141.117 215.159 141.979C213.406 145.355 209.067 147.667 204.988 148.129C192.488 147.032 179.936 146.643 167.392 146.964Z" fill="#FEEDE3"/>
<path d="M213.496 134.468L185.825 135.379L213.529 135.813C213.41 135.61 213.344 135.38 213.338 135.145C213.333 134.909 213.387 134.677 213.496 134.468Z" fill="#DBB9AB"/>
<path d="M215.834 137.427L178.21 138.406L215.485 138.592C215.453 138.384 215.468 138.172 215.528 137.97C215.589 137.769 215.693 137.584 215.834 137.427Z" fill="#DBB9AB"/>
<path d="M215.845 140.319L187.578 140.882C196.805 140.848 206.022 140.978 215.227 141.27C215.225 141.068 215.282 140.87 215.392 140.701C215.502 140.532 215.66 140.399 215.845 140.319Z" fill="#DBB9AB"/>
<path d="M213.889 143.037L177.884 143.464L213.13 144.111C213.309 143.706 213.567 143.34 213.889 143.037Z" fill="#DBB9AB"/>
<path d="M165.307 129.798C179.216 129.067 193.164 129.005 207.303 129.433C209.267 129.447 211.185 130.033 212.821 131.12C215.772 133.225 217.508 136.437 217.188 139.639C216.868 142.84 214.496 145.872 211.265 147.729C209.56 148.682 207.63 149.154 205.679 149.096C192.383 148.809 179.087 148.534 165.712 148.123C165.609 147.155 165.788 146.178 166.229 145.31C178.592 145.608 190.983 145.901 203.909 146.176C208.432 146.272 212.585 143.74 213.344 140.162C213.416 139.825 213.457 139.482 213.468 139.138C213.478 138.797 213.457 138.456 213.406 138.119C212.844 134.53 208.848 131.97 204.319 132.043L165.639 132.634C165.632 131.679 165.52 130.729 165.307 129.798Z" fill="#3C97FE"/>
<path d="M218.098 126.889C214.254 128.212 211.405 129.14 207.477 130.366C207.19 130.08 206.915 129.804 206.606 129.523C197.502 121.145 183.341 121.083 172.675 115.339C171.039 114.455 169.179 113.921 167.347 113.133C172.405 112.239 177.654 111.153 183.324 110.23C194.159 110.23 204.993 110.168 216.109 110.23H216.289C217.849 110.933 219.196 112.036 220.194 113.427C221.193 114.817 221.807 116.447 221.976 118.152C222.245 121.606 220.576 125.157 218.098 126.889Z" fill="#F7AA36"/>
<path d="M218.098 126.889C214.254 128.212 211.405 129.14 207.477 130.366C207.19 130.08 206.915 129.804 206.606 129.523C207.631 128.89 208.574 128.134 209.416 127.272C211.102 125.511 212.226 123.058 211.939 120.616C211.655 118.64 210.628 116.847 209.067 115.603C207.537 114.401 205.754 113.562 203.852 113.15L216.092 110.23H216.272C217.829 110.935 219.172 112.039 220.168 113.43C221.163 114.82 221.775 116.449 221.942 118.152C222.245 121.606 220.576 125.157 218.098 126.889Z" fill="#F0942B"/>
<path d="M169.308 128.915C170.637 126.789 171.375 124.347 171.444 121.84C171.513 119.333 170.912 116.854 169.702 114.658C181.223 114.093 192.765 114.108 204.285 114.703C206.06 114.703 207.824 114.984 209.511 115.536C210.343 115.832 211.102 116.3 211.74 116.911C212.378 117.521 212.88 118.259 213.213 119.077C213.546 119.895 213.703 120.774 213.673 121.657C213.643 122.54 213.428 123.406 213.041 124.2C211.445 127.334 207.477 129.449 203.746 129.883C192.294 128.906 180.797 128.583 169.308 128.915Z" fill="#FEEDE3"/>
<path d="M211.489 117.297L176.929 118.602L211.518 118.534C211.373 118.362 211.292 118.145 211.286 117.92C211.281 117.695 211.353 117.475 211.489 117.297Z" fill="#DBB9AB"/>
<path d="M213.642 120.014L186.634 120.689L213.406 121.066C213.35 120.698 213.434 120.323 213.642 120.014Z" fill="#DBB9AB"/>
<path d="M213.659 122.653L192.815 123.064C199.623 123.064 206.421 123.227 213.209 123.553C213.197 123.377 213.233 123.2 213.312 123.042C213.391 122.884 213.511 122.749 213.659 122.653Z" fill="#DBB9AB"/>
<path d="M211.86 125.173L175.895 125.792L211.107 126.169C211.283 125.787 211.54 125.447 211.86 125.173Z" fill="#DBB9AB"/>
<path d="M167.347 113.133C180.081 112.424 192.855 112.329 205.802 112.683C207.605 112.698 209.363 113.242 210.86 114.247C213.569 116.171 215.17 119.125 214.884 122.068C214.597 125.01 212.439 127.807 209.483 129.523C207.929 130.387 206.169 130.815 204.392 130.76C192.22 130.535 180.036 130.299 167.791 129.978C167.696 129.09 167.858 128.194 168.258 127.396C179.592 127.632 190.927 127.874 202.768 128.088C206.909 128.161 210.708 125.837 211.394 122.529C211.459 122.22 211.497 121.905 211.506 121.589C211.514 121.277 211.493 120.964 211.445 120.656C210.933 117.359 207.252 115.029 203.105 115.091L167.701 115.744C167.674 114.864 167.555 113.989 167.347 113.133Z" fill="#FFBF46"/>
<path d="M24.85 2.10423C26.1763 2.33491 26.6877 2.7625 26.5022 4.42788C26.7495 2.82439 27.1204 2.46431 28.7838 2.5487C26.9743 2.11548 27.0136 1.53035 27.1934 0C26.9068 1.53597 26.3449 2.10423 24.85 2.10423Z" fill="white"/>
<path d="M3.49542 74.1262C4.82166 74.3569 5.33304 74.7845 5.1476 76.4499C5.39486 74.8464 5.76576 74.4919 7.42917 74.5707C5.61965 74.1375 5.65898 73.5523 5.83881 72.022C5.55221 73.5579 4.99025 74.1262 3.49542 74.1262Z" fill="white"/>
<path d="M137.524 6.53773C138.85 6.76841 139.361 7.196 139.176 8.86138C139.423 7.25789 139.794 6.89781 141.458 6.98221C139.648 6.54898 139.687 5.96385 139.867 4.4335C139.581 5.96948 139.019 6.53773 137.524 6.53773Z" fill="white"/>
<path d="M215.974 67.8023C217.311 67.6335 217.924 67.8866 218.222 69.5351C217.986 67.9317 218.222 67.4815 219.852 67.0652C217.997 67.1834 217.862 66.6095 217.604 65.096C217.772 66.6489 217.401 67.3634 215.974 67.8023Z" fill="white"/>
<path d="M224.111 115.626C225.449 115.457 226.061 115.71 226.359 117.359C226.123 115.755 226.359 115.305 227.989 114.889C226.134 115.007 225.999 114.433 225.741 112.919C225.91 114.472 225.544 115.187 224.111 115.626Z" fill="white"/>
</g>
<defs>
<clipPath id="clip0_3_118">
<rect width="228" height="179" fill="white"/>
</clipPath>
</defs>
</svg>
